<svg width="96" height="87" viewBox="0 0 96 87" fill="none" xmlns="http://www.w3.org/2000/svg">
<g id="arrow-left">
<g id="vuesax/outline/arrow-left">
<g id="arrow-left_2">
<path id="Vector" d="M34.0712 68.2226C33.2558 68.2226 32.4404 67.9688 31.7967 67.4251L5.74624 45.4213C4.50166 44.3701 4.50166 42.6301 5.74624 41.5788L31.7967 19.5751C33.0412 18.5238 35.1012 18.5238 36.3458 19.5751C37.5904 20.6263 37.5904 22.3663 36.3458 23.4176L12.57 43.5001L36.3458 63.5826C37.5904 64.6338 37.5904 66.3738 36.3458 67.4251C35.745 67.9688 34.8867 68.2226 34.0712 68.2226Z" fill="#292D32"/>
<path id="Vector_2" d="M80.9792 46.2188H8.75043C6.99084 46.2188 5.53168 44.9862 5.53168 43.5C5.53168 42.0137 6.99084 40.7812 8.75043 40.7812H80.9792C82.7388 40.7812 84.1979 42.0137 84.1979 43.5C84.1979 44.9862 82.7388 46.2188 80.9792 46.2188Z" fill="#292D32"/>
</g>
</g>
</g>
</svg>
