<svg width="58" height="43" viewBox="0 0 58 43" fill="none" xmlns="http://www.w3.org/2000/svg">
<g id="shopping-cart">
<g id="vuesax/outline/shopping-cart">
<g id="shopping-cart_2">
<path id="Vector" d="M43.9592 31.802H18.2216C15.8291 31.802 13.5333 31.0495 11.9141 29.7416C10.295 28.4337 9.47331 26.6778 9.66665 24.9041L11.6725 7.05909C11.745 6.50367 11.4791 5.96618 10.9716 5.5541C10.4641 5.14201 9.7633 4.927 9.01414 4.927H4.83331C3.84248 4.927 3.02081 4.31784 3.02081 3.58325C3.02081 2.84867 3.84248 2.2395 4.83331 2.2395H9.03833C10.8025 2.2395 12.47 2.79491 13.6541 3.7445C14.3066 4.282 14.79 4.90909 15.0558 5.60784H45.24C47.6808 5.60784 49.9283 6.3245 51.5716 7.6145C53.1908 8.92242 54.0125 10.6245 53.8192 12.4341L52.5141 25.8716C52.2483 29.1503 48.3817 31.802 43.9592 31.802ZM15.1766 8.27741L13.2916 25.1191C13.1708 26.1582 13.63 27.1436 14.5725 27.9141C15.515 28.6845 16.82 29.0966 18.2216 29.0966H43.9592C46.4725 29.0966 48.7441 27.5199 48.9375 25.6566L50.2425 12.2191C50.3391 11.162 49.88 10.1587 48.9375 9.4241C47.995 8.6716 46.69 8.25948 45.2641 8.25948H15.1766V8.27741Z" fill="#BEF31B" fill-opacity="0.97"/>
<path id="Vector_2" d="M39.2708 40.7604C36.6125 40.7604 34.4375 39.1479 34.4375 37.1771C34.4375 35.2063 36.6125 33.5938 39.2708 33.5938C41.9292 33.5938 44.1042 35.2063 44.1042 37.1771C44.1042 39.1479 41.9292 40.7604 39.2708 40.7604ZM39.2708 36.2813C38.5942 36.2813 38.0625 36.6754 38.0625 37.1771C38.0625 37.6788 38.5942 38.0729 39.2708 38.0729C39.9475 38.0729 40.4792 37.6788 40.4792 37.1771C40.4792 36.6754 39.9475 36.2813 39.2708 36.2813Z" fill="#BEF31B" fill-opacity="0.97"/>
<path id="Vector_3" d="M19.9375 40.7604C17.2792 40.7604 15.1042 39.1479 15.1042 37.1771C15.1042 35.2063 17.2792 33.5938 19.9375 33.5938C22.5959 33.5938 24.7709 35.2063 24.7709 37.1771C24.7709 39.1479 22.5959 40.7604 19.9375 40.7604ZM19.9375 36.2813C19.2609 36.2813 18.7292 36.6754 18.7292 37.1771C18.7292 37.6788 19.2609 38.0729 19.9375 38.0729C20.6142 38.0729 21.1459 37.6788 21.1459 37.1771C21.1459 36.6754 20.6142 36.2813 19.9375 36.2813Z" fill="#BEF31B" fill-opacity="0.97"/>
<path id="Vector_4" d="M50.75 15.677H21.75C20.7592 15.677 19.9375 15.0678 19.9375 14.3333C19.9375 13.5987 20.7592 12.9895 21.75 12.9895H50.75C51.7408 12.9895 52.5625 13.5987 52.5625 14.3333C52.5625 15.0678 51.7408 15.677 50.75 15.677Z" fill="#BEF31B" fill-opacity="0.97"/>
</g>
</g>
</g>
</svg>
